<svg width="386" height="205" viewBox="0 0 386 205" fill="none" xmlns="http://www.w3.org/2000/svg">
<path d="M146.763 34.2286C147.395 30.7431 147.711 29.0003 148.64 28.1211C149.45 27.3539 150.554 26.9632 151.681 27.0446C152.974 27.1378 154.368 28.2753 157.156 30.5503L188.478 56.106C191.345 58.4456 192.779 59.6154 193.114 60.8752C193.406 61.9739 193.212 63.1371 192.581 64.0732C191.857 65.1466 190.126 65.7592 186.665 66.9843L148.243 80.5822C144.782 81.8073 143.051 82.4198 141.787 82.0499C140.684 81.7274 139.767 80.9575 139.264 79.9333C138.688 78.7589 139.013 76.9666 139.663 73.3821L146.763 34.2286Z" fill="black"/>
<ellipse rx="5.58971" ry="8.26969" transform="matrix(0.712049 -0.692372 0.721941 0.70199 130.657 47.4907)" fill="black"/>
<ellipse rx="5.58971" ry="8.26968" transform="matrix(1.00316 0.0853395 -0.0889841 0.988986 178.261 30.6432)" fill="black"/>
<ellipse rx="8.41088" ry="10.9906" transform="matrix(0.869351 -0.488049 0.512146 0.86255 138.105 27.3813)" fill="black"/>
<ellipse rx="8.41088" ry="10.9906" transform="matrix(0.988589 -0.169498 0.177867 0.980855 159.263 19.8934)" fill="black"/>
<path d="M226.629 54.3686C228.862 51.589 229.979 50.1992 231.218 49.8469C232.299 49.5394 233.456 49.6976 234.408 50.2828C235.498 50.9534 236.178 52.5887 237.537 55.8592L252.853 92.7194C254.26 96.107 254.964 97.8008 254.653 99.0718C254.382 100.18 253.65 101.124 252.642 101.666C251.487 102.287 249.663 102.038 246.016 101.54L205.529 96.0068C201.882 95.5084 200.059 95.2592 199.124 94.352C198.308 93.561 197.873 92.4578 197.926 91.3197C197.988 90.0146 199.144 88.5751 201.458 85.696L226.629 54.3686Z" fill="black"/>
<ellipse rx="5.5994" ry="8.25493" transform="matrix(0.961323 -0.285784 0.299039 0.951082 205.977 58.7604)" fill="black"/>
<ellipse rx="5.59939" ry="8.25493" transform="matrix(0.843072 0.532367 -0.557058 0.83409 256.143 65.616)" fill="black"/>
<ellipse rx="8.43204" ry="10.9617" transform="matrix(1.00071 -0.0339799 0.0358414 0.998001 222.262 44.405)" fill="black"/>
<ellipse rx="8.43204" ry="10.9617" transform="matrix(0.952312 0.300874 -0.317357 0.949734 244.559 47.4518)" fill="black"/>
<path d="M23.9844 152.25C23.9844 151.625 24.1875 151.219 24.5938 151.031C25.0312 150.844 25.5 150.75 26 150.75C26.0938 150.75 26.2656 150.766 26.5156 150.797C26.7969 150.828 26.9688 150.844 27.0312 150.844C27.125 151.812 27.2188 152.984 27.3125 154.359C27.4062 155.703 27.5156 157.172 27.6406 158.766C27.7656 160.328 27.9219 161.953 28.1094 163.641C28.2969 165.328 28.5625 166.984 28.9062 168.609C29.25 170.203 29.6719 171.734 30.1719 173.203C30.6719 174.641 31.2812 175.891 32 176.953C32.1562 177.234 32.2969 177.453 32.4219 177.609C32.5781 177.734 32.7188 177.844 32.8438 177.938C33 178 33.1719 178.047 33.3594 178.078C33.5469 178.078 33.7812 178.078 34.0625 178.078C35.3438 178.078 36.5625 177.859 37.7188 177.422C38.9062 176.984 40.0781 176.5 41.2344 175.969C42.3906 175.438 43.5625 174.953 44.75 174.516C45.9375 174.078 47.1875 173.859 48.5 173.859C48.7812 173.859 49.1406 173.859 49.5781 173.859C50.0156 173.828 50.4219 173.844 50.7969 173.906C51.1719 173.969 51.5 174.125 51.7812 174.375C52.0625 174.625 52.2031 175 52.2031 175.5C52.2031 175.969 51.7812 176.484 50.9375 177.047C50.0938 177.578 49.0156 178.125 47.7031 178.688C46.3906 179.219 44.9531 179.75 43.3906 180.281C41.8594 180.812 40.375 181.281 38.9375 181.688C37.5312 182.094 36.2812 182.422 35.1875 182.672C34.0938 182.891 33.375 183 33.0312 183C31.9062 183 30.9062 182.625 30.0312 181.875C29.1875 181.094 28.4375 180.062 27.7812 178.781C27.1562 177.469 26.625 175.984 26.1875 174.328C25.75 172.641 25.3906 170.891 25.1094 169.078C24.8281 167.266 24.6094 165.469 24.4531 163.688C24.2969 161.906 24.1875 160.25 24.125 158.719C24.0625 157.188 24.0156 155.844 23.9844 154.688C23.9844 153.531 23.9844 152.719 23.9844 152.25ZM74.1875 176.953C73 177.766 71.9688 178.5 71.0938 179.156C70.25 179.781 69.4219 180.312 68.6094 180.75C67.7969 181.188 66.9219 181.516 65.9844 181.734C65.0781 181.953 63.9531 182.062 62.6094 182.062C59.7031 182.062 57.5469 181.297 56.1406 179.766C54.7344 178.203 54.0312 175.891 54.0312 172.828C54.0312 171.641 54.1875 170.406 54.5 169.125C54.8125 167.844 55.2656 166.578 55.8594 165.328C56.4844 164.047 57.2188 162.844 58.0625 161.719C58.9062 160.562 59.8594 159.547 60.9219 158.672C61.9844 157.797 63.1094 157.109 64.2969 156.609C65.5156 156.078 66.7969 155.812 68.1406 155.812C70.3906 156.031 72.1562 156.594 73.4375 157.5C74.7188 158.375 75.6875 159.516 76.3438 160.922C77 162.297 77.4531 163.844 77.7031 165.562C77.9531 167.25 78.1406 169 78.2656 170.812C78.4219 172.625 78.6094 174.438 78.8281 176.25C79.0469 178.062 79.5 179.734 80.1875 181.266C79.7812 182.297 79.3906 183.016 79.0156 183.422C78.6719 183.859 78.2812 183.938 77.8438 183.656C77.4062 183.375 76.8906 182.688 76.2969 181.594C75.7344 180.5 75.0312 178.953 74.1875 176.953ZM58.0156 172.922C58.0156 174.703 58.3438 176.016 59 176.859C59.6875 177.672 60.8906 178.078 62.6094 178.078C63.8906 178.078 65.1094 177.859 66.2656 177.422C67.4531 176.953 68.4844 176.328 69.3594 175.547C70.2344 174.734 70.9375 173.766 71.4688 172.641C72 171.516 72.2656 170.266 72.2656 168.891C72.2656 168.328 72.2812 167.547 72.3125 166.547C72.3438 165.516 72.2812 164.5 72.125 163.5C71.9688 162.5 71.6719 161.641 71.2344 160.922C70.7969 160.172 70.1406 159.797 69.2656 159.797C67.6406 159.797 66.1406 160.219 64.7656 161.062C63.3906 161.875 62.2031 162.922 61.2031 164.203C60.2031 165.484 59.4219 166.906 58.8594 168.469C58.2969 170 58.0156 171.484 58.0156 172.922ZM83.1406 163.312C83.1406 163.031 83.1562 162.75 83.1875 162.469C83.2188 162.156 83.2812 161.891 83.375 161.672C83.4688 161.422 83.6094 161.219 83.7969 161.062C84.0156 160.906 84.3125 160.828 84.6875 160.828C85 160.828 85.3438 161.078 85.7188 161.578C86.125 162.047 86.5312 162.656 86.9375 163.406C87.3438 164.125 87.7344 164.922 88.1094 165.797C88.5156 166.672 88.8594 167.484 89.1406 168.234C89.4531 168.953 89.7031 169.578 89.8906 170.109C90.0781 170.641 90.1875 170.922 90.2188 170.953C90.625 169.859 91.0781 168.672 91.5781 167.391C92.0781 166.109 92.6875 164.922 93.4062 163.828C94.1562 162.703 95.0312 161.766 96.0312 161.016C97.0625 160.266 98.3125 159.891 99.7812 159.891C100.531 159.891 101.234 160.016 101.891 160.266C102.578 160.484 103.172 160.828 103.672 161.297C104.203 161.734 104.625 162.266 104.938 162.891C105.25 163.516 105.406 164.234 105.406 165.047C105.406 165.734 105.125 166.219 104.562 166.5C104.031 166.781 103.422 166.922 102.734 166.922H102.266L100.25 164.906C100.188 164.906 100.141 164.891 100.109 164.859C100.047 164.859 99.9844 164.859 99.9219 164.859C99.8906 164.828 99.8438 164.812 99.7812 164.812C98.6875 164.812 97.8281 165.125 97.2031 165.75C96.6094 166.344 96.1562 167.094 95.8438 168C95.5312 168.875 95.3281 169.812 95.2344 170.812C95.1719 171.781 95.1406 172.672 95.1406 173.484C95.1406 174.109 95.2031 174.75 95.3281 175.406C95.4531 176.031 95.5938 176.656 95.75 177.281C95.9062 177.875 96.0469 178.5 96.1719 179.156C96.2969 179.781 96.3594 180.438 96.3594 181.125C96.3594 182.438 95.6562 183.094 94.25 183.094C93.4688 183.094 92.6562 182.688 91.8125 181.875C90.9688 181.031 90.125 179.969 89.2812 178.688C88.4688 177.406 87.6875 176 86.9375 174.469C86.1875 172.906 85.5312 171.391 84.9688 169.922C84.4062 168.453 83.9531 167.125 83.6094 165.938C83.2969 164.75 83.1406 163.875 83.1406 163.312ZM125.281 154.875C125.156 154.438 124.906 154.141 124.531 153.984C124.188 153.828 123.797 153.75 123.359 153.75C122.953 153.719 122.547 153.734 122.141 153.797C121.734 153.859 121.422 153.891 121.203 153.891C120.672 153.859 119.75 153.797 118.438 153.703C117.125 153.609 115.703 153.516 114.172 153.422C112.672 153.297 111.266 153.188 109.953 153.094C108.641 152.969 107.719 152.891 107.188 152.859C107.188 152.797 107.172 152.641 107.141 152.391C107.109 152.141 107.094 151.969 107.094 151.875C107.094 151.438 107.125 151.047 107.188 150.703C107.281 150.359 107.594 150.094 108.125 149.906C111.062 149.969 113.953 149.953 116.797 149.859C119.672 149.766 122.531 149.641 125.375 149.484C128.25 149.297 131.109 149.125 133.953 148.969C136.828 148.812 139.719 148.734 142.625 148.734C142.625 149.922 142.344 150.797 141.781 151.359C141.219 151.891 140.516 152.25 139.672 152.438C138.859 152.625 137.953 152.703 136.953 152.672C135.953 152.641 134.984 152.656 134.047 152.719C133.141 152.781 132.328 152.969 131.609 153.281C130.922 153.562 130.469 154.094 130.25 154.875C130.219 155.062 130.188 155.422 130.156 155.953C130.125 156.484 130.094 157.047 130.062 157.641C130.062 158.234 130.047 158.797 130.016 159.328C130.016 159.828 130.016 160.188 130.016 160.406C130.016 162.188 130.234 163.953 130.672 165.703C131.141 167.422 131.641 169.141 132.172 170.859C132.734 172.547 133.234 174.25 133.672 175.969C134.141 177.656 134.375 179.375 134.375 181.125C134.375 182.438 133.625 183.094 132.125 183.094C131.219 183.094 130.406 182.469 129.688 181.219C129 179.969 128.391 178.375 127.859 176.438C127.359 174.5 126.938 172.391 126.594 170.109C126.281 167.828 126.016 165.641 125.797 163.547C125.609 161.453 125.469 159.609 125.375 158.016C125.312 156.422 125.281 155.375 125.281 154.875ZM145.25 169.969C145.25 168.281 145.453 166.594 145.859 164.906C146.266 163.219 146.906 161.703 147.781 160.359C148.688 159.016 149.844 157.922 151.25 157.078C152.688 156.234 154.422 155.812 156.453 155.812C157.609 155.812 158.625 156.031 159.5 156.469C160.375 156.875 161.109 157.422 161.703 158.109C162.297 158.797 162.734 159.609 163.016 160.547C163.328 161.453 163.484 162.406 163.484 163.406C163.484 165 163.109 166.547 162.359 168.047C161.641 169.547 160.656 170.875 159.406 172.031C158.188 173.156 156.781 174.016 155.188 174.609C153.594 175.172 151.969 175.297 150.312 174.984C150.344 175.891 150.641 176.625 151.203 177.188C151.797 177.719 152.5 178.125 153.312 178.406C154.125 178.688 154.969 178.875 155.844 178.969C156.719 179.031 157.5 179.062 158.188 179.062C158.906 179.062 159.578 179 160.203 178.875C160.828 178.75 161.453 178.609 162.078 178.453C162.703 178.297 163.328 178.156 163.953 178.031C164.609 177.906 165.297 177.844 166.016 177.844C166.297 177.844 166.578 177.859 166.859 177.891C167.141 177.922 167.406 178 167.656 178.125C167.906 178.219 168.109 178.391 168.266 178.641C168.422 178.859 168.5 179.141 168.5 179.484C168.5 180.078 168.281 180.578 167.844 180.984C167.406 181.359 166.844 181.688 166.156 181.969C165.5 182.25 164.766 182.469 163.953 182.625C163.141 182.75 162.344 182.859 161.562 182.953C160.812 183.016 160.109 183.047 159.453 183.047C158.828 183.078 158.359 183.094 158.047 183.094C156.047 183.094 154.25 182.781 152.656 182.156C151.062 181.5 149.719 180.609 148.625 179.484C147.531 178.328 146.688 176.953 146.094 175.359C145.531 173.734 145.25 171.938 145.25 169.969ZM150.219 166.922C150.219 168.016 150.359 168.812 150.641 169.312C150.953 169.812 151.688 170.062 152.844 170.062C153.656 170.062 154.453 169.922 155.234 169.641C156.016 169.328 156.719 168.906 157.344 168.375C158 167.844 158.516 167.219 158.891 166.5C159.266 165.781 159.453 165 159.453 164.156C159.453 163.688 159.406 163.203 159.312 162.703C159.25 162.203 159.094 161.75 158.844 161.344C158.594 160.906 158.266 160.562 157.859 160.312C157.484 160.031 156.984 159.891 156.359 159.891C155.422 159.891 154.562 160.109 153.781 160.547C153.031 160.953 152.391 161.5 151.859 162.188C151.328 162.844 150.922 163.594 150.641 164.438C150.359 165.25 150.219 166.078 150.219 166.922ZM170.375 163.312C170.375 162.531 170.5 161.922 170.75 161.484C171.031 161.047 171.609 160.828 172.484 160.828C172.578 160.828 172.75 160.844 173 160.875C173.281 160.875 173.453 160.875 173.516 160.875C173.734 161.844 173.953 162.906 174.172 164.062C174.422 165.188 174.703 166.328 175.016 167.484C175.328 168.641 175.672 169.781 176.047 170.906C176.453 172.031 176.938 173.047 177.5 173.953C178.062 173.359 178.469 172.656 178.719 171.844C178.969 171.031 179.156 170.219 179.281 169.406C179.406 168.562 179.516 167.766 179.609 167.016C179.734 166.234 179.969 165.578 180.312 165.047C180.656 164.484 181.156 164.078 181.812 163.828C182.5 163.578 183.438 163.578 184.625 163.828C185.938 163.828 186.984 164.078 187.766 164.578C188.547 165.047 189.219 165.656 189.781 166.406C190.375 167.125 190.938 167.906 191.469 168.75C192.031 169.562 192.734 170.297 193.578 170.953C193.766 170.547 194 170.047 194.281 169.453C194.562 168.828 194.906 168.188 195.312 167.531C195.75 166.844 196.203 166.172 196.672 165.516C197.172 164.828 197.688 164.219 198.219 163.688C198.75 163.125 199.297 162.672 199.859 162.328C200.422 161.953 200.969 161.766 201.5 161.766C202.781 161.766 203.891 162.172 204.828 162.984C205.766 163.766 206.562 164.766 207.219 165.984C207.906 167.172 208.469 168.516 208.906 170.016C209.344 171.484 209.688 172.906 209.938 174.281C210.188 175.656 210.359 176.922 210.453 178.078C210.578 179.203 210.641 180.016 210.641 180.516C210.641 180.922 210.547 181.234 210.359 181.453C210.172 181.672 209.938 181.844 209.656 181.969C209.375 182.062 209.062 182.125 208.719 182.156C208.406 182.188 208.109 182.203 207.828 182.203C207.766 182.203 207.672 182.203 207.547 182.203C207.422 182.172 207.281 182.141 207.125 182.109C207 182.078 206.828 182.031 206.609 181.969L203.562 167.953C203.562 167.859 203.438 167.688 203.188 167.438C202.938 167.156 202.75 166.984 202.625 166.922C202.531 166.922 202.453 166.906 202.391 166.875C202.328 166.875 202.281 166.875 202.25 166.875C202.219 166.844 202.188 166.828 202.156 166.828C201.5 166.828 200.875 167.094 200.281 167.625C199.719 168.156 199.188 168.828 198.688 169.641C198.188 170.453 197.719 171.359 197.281 172.359C196.844 173.359 196.453 174.359 196.109 175.359C195.766 176.328 195.453 177.234 195.172 178.078C194.922 178.891 194.719 179.516 194.562 179.953C194.438 180.016 194.188 180.078 193.812 180.141C193.438 180.172 193.188 180.188 193.062 180.188C192.188 180.188 191.516 179.891 191.047 179.297C190.578 178.672 190.188 177.906 189.875 177C189.594 176.094 189.344 175.109 189.125 174.047C188.938 172.953 188.688 171.953 188.375 171.047C188.094 170.141 187.688 169.391 187.156 168.797C186.656 168.172 185.938 167.859 185 167.859C184.656 167.859 184.328 168.203 184.016 168.891C183.703 169.578 183.422 170.453 183.172 171.516C182.922 172.547 182.688 173.672 182.469 174.891C182.25 176.078 182.062 177.203 181.906 178.266C181.781 179.297 181.688 180.172 181.625 180.891C181.562 181.609 181.531 181.969 181.531 181.969C181.469 182.062 181.344 182.172 181.156 182.297C180.969 182.391 180.766 182.5 180.547 182.625C180.359 182.75 180.156 182.844 179.938 182.906C179.75 182.969 179.609 183 179.516 183C178.641 183 177.797 182.609 176.984 181.828C176.172 181.016 175.422 179.984 174.734 178.734C174.078 177.453 173.469 176.047 172.906 174.516C172.375 172.984 171.922 171.484 171.547 170.016C171.172 168.547 170.875 167.219 170.656 166.031C170.469 164.844 170.375 163.938 170.375 163.312ZM212.562 165.703C212.562 162.672 213.266 160.422 214.672 158.953C216.078 157.484 218.234 156.75 221.141 156.75C222.328 156.75 223.547 156.859 224.797 157.078C226.078 157.297 227.25 157.688 228.312 158.25C229.375 158.781 230.234 159.531 230.891 160.5C231.578 161.469 231.922 162.719 231.922 164.25C231.922 165.938 231.547 167.531 230.797 169.031C230.078 170.5 229.156 171.891 228.031 173.203C226.938 174.484 225.719 175.688 224.375 176.812C223.062 177.906 221.828 178.953 220.672 179.953C220.609 180.078 220.547 180.344 220.484 180.75C220.453 181.125 220.438 181.375 220.438 181.5C220.438 182.531 220.734 183.562 221.328 184.594C221.953 185.656 222.625 186.719 223.344 187.781C224.062 188.875 224.719 190 225.312 191.156C225.906 192.312 226.203 193.516 226.203 194.766C226.203 195.516 226.047 195.953 225.734 196.078C225.422 196.234 224.766 196.312 223.766 196.312C223.141 196.062 222.516 195.469 221.891 194.531C221.297 193.625 220.688 192.5 220.062 191.156C219.469 189.812 218.875 188.297 218.281 186.609C217.719 184.953 217.172 183.266 216.641 181.547C216.141 179.797 215.656 178.078 215.188 176.391C214.75 174.672 214.359 173.094 214.016 171.656C213.672 170.219 213.359 168.984 213.078 167.953C212.828 166.891 212.656 166.141 212.562 165.703ZM216.547 166.125C216.547 166.594 216.578 167.281 216.641 168.188C216.703 169.062 216.828 169.938 217.016 170.812C217.234 171.688 217.547 172.453 217.953 173.109C218.359 173.734 218.922 174.047 219.641 174.047C220.609 174.047 221.578 173.719 222.547 173.062C223.547 172.406 224.422 171.578 225.172 170.578C225.953 169.578 226.578 168.516 227.047 167.391C227.547 166.234 227.797 165.188 227.797 164.25C227.797 163.469 227.609 162.859 227.234 162.422C226.859 161.953 226.375 161.594 225.781 161.344C225.219 161.062 224.609 160.891 223.953 160.828C223.297 160.734 222.672 160.688 222.078 160.688C220.297 160.688 218.922 161.172 217.953 162.141C217.016 163.078 216.547 164.406 216.547 166.125ZM234.688 173.484C234.688 171.547 235.141 169.75 236.047 168.094C236.953 166.406 238.141 164.969 239.609 163.781C241.109 162.562 242.781 161.609 244.625 160.922C246.5 160.234 248.391 159.891 250.297 159.891C251.359 159.891 252.297 160.234 253.109 160.922C253.953 161.609 254.656 162.453 255.219 163.453C255.781 164.422 256.203 165.453 256.484 166.547C256.797 167.641 256.953 168.594 256.953 169.406C256.953 171.156 256.531 172.859 255.688 174.516C254.844 176.141 253.75 177.594 252.406 178.875C251.062 180.125 249.547 181.141 247.859 181.922C246.172 182.703 244.484 183.094 242.797 183.094C241.297 183.094 240.031 182.844 239 182.344C237.969 181.812 237.141 181.125 236.516 180.281C235.891 179.406 235.422 178.391 235.109 177.234C234.828 176.047 234.688 174.797 234.688 173.484ZM238.672 173.953C238.672 174.766 238.734 175.484 238.859 176.109C239.016 176.703 239.266 177.219 239.609 177.656C239.984 178.094 240.469 178.438 241.062 178.688C241.656 178.906 242.391 179.016 243.266 179.016C244.422 179.016 245.578 178.703 246.734 178.078C247.891 177.422 248.922 176.609 249.828 175.641C250.766 174.641 251.516 173.547 252.078 172.359C252.641 171.172 252.922 170.016 252.922 168.891C252.922 168.391 252.875 167.844 252.781 167.25C252.688 166.656 252.531 166.109 252.312 165.609C252.094 165.109 251.781 164.688 251.375 164.344C250.969 164 250.453 163.828 249.828 163.828C249.266 163.828 248.594 164.016 247.812 164.391C247.062 164.766 246.266 165.25 245.422 165.844C244.609 166.438 243.797 167.109 242.984 167.859C242.203 168.609 241.484 169.359 240.828 170.109C240.172 170.859 239.641 171.578 239.234 172.266C238.859 172.953 238.672 173.516 238.672 173.953ZM258.781 163.312C258.781 163.031 258.797 162.75 258.828 162.469C258.859 162.156 258.922 161.891 259.016 161.672C259.109 161.422 259.25 161.219 259.438 161.062C259.656 160.906 259.953 160.828 260.328 160.828C260.641 160.828 260.984 161.078 261.359 161.578C261.766 162.047 262.172 162.656 262.578 163.406C262.984 164.125 263.375 164.922 263.75 165.797C264.156 166.672 264.5 167.484 264.781 168.234C265.094 168.953 265.344 169.578 265.531 170.109C265.719 170.641 265.828 170.922 265.859 170.953C266.266 169.859 266.719 168.672 267.219 167.391C267.719 166.109 268.328 164.922 269.047 163.828C269.797 162.703 270.672 161.766 271.672 161.016C272.703 160.266 273.953 159.891 275.422 159.891C276.172 159.891 276.875 160.016 277.531 160.266C278.219 160.484 278.812 160.828 279.312 161.297C279.844 161.734 280.266 162.266 280.578 162.891C280.891 163.516 281.047 164.234 281.047 165.047C281.047 165.734 280.766 166.219 280.203 166.5C279.672 166.781 279.062 166.922 278.375 166.922H277.906L275.891 164.906C275.828 164.906 275.781 164.891 275.75 164.859C275.688 164.859 275.625 164.859 275.562 164.859C275.531 164.828 275.484 164.812 275.422 164.812C274.328 164.812 273.469 165.125 272.844 165.75C272.25 166.344 271.797 167.094 271.484 168C271.172 168.875 270.969 169.812 270.875 170.812C270.812 171.781 270.781 172.672 270.781 173.484C270.781 174.109 270.844 174.75 270.969 175.406C271.094 176.031 271.234 176.656 271.391 177.281C271.547 177.875 271.688 178.5 271.812 179.156C271.938 179.781 272 180.438 272 181.125C272 182.438 271.297 183.094 269.891 183.094C269.109 183.094 268.297 182.688 267.453 181.875C266.609 181.031 265.766 179.969 264.922 178.688C264.109 177.406 263.328 176 262.578 174.469C261.828 172.906 261.172 171.391 260.609 169.922C260.047 168.453 259.594 167.125 259.25 165.938C258.938 164.75 258.781 163.875 258.781 163.312ZM302.891 176.953C301.703 177.766 300.672 178.5 299.797 179.156C298.953 179.781 298.125 180.312 297.312 180.75C296.5 181.188 295.625 181.516 294.688 181.734C293.781 181.953 292.656 182.062 291.312 182.062C288.406 182.062 286.25 181.297 284.844 179.766C283.438 178.203 282.734 175.891 282.734 172.828C282.734 171.641 282.891 170.406 283.203 169.125C283.516 167.844 283.969 166.578 284.562 165.328C285.188 164.047 285.922 162.844 286.766 161.719C287.609 160.562 288.562 159.547 289.625 158.672C290.688 157.797 291.812 157.109 293 156.609C294.219 156.078 295.5 155.812 296.844 155.812C299.094 156.031 300.859 156.594 302.141 157.5C303.422 158.375 304.391 159.516 305.047 160.922C305.703 162.297 306.156 163.844 306.406 165.562C306.656 167.25 306.844 169 306.969 170.812C307.125 172.625 307.312 174.438 307.531 176.25C307.75 178.062 308.203 179.734 308.891 181.266C308.484 182.297 308.094 183.016 307.719 183.422C307.375 183.859 306.984 183.938 306.547 183.656C306.109 183.375 305.594 182.688 305 181.594C304.438 180.5 303.734 178.953 302.891 176.953ZM286.719 172.922C286.719 174.703 287.047 176.016 287.703 176.859C288.391 177.672 289.594 178.078 291.312 178.078C292.594 178.078 293.812 177.859 294.969 177.422C296.156 176.953 297.188 176.328 298.062 175.547C298.938 174.734 299.641 173.766 300.172 172.641C300.703 171.516 300.969 170.266 300.969 168.891C300.969 168.328 300.984 167.547 301.016 166.547C301.047 165.516 300.984 164.5 300.828 163.5C300.672 162.5 300.375 161.641 299.938 160.922C299.5 160.172 298.844 159.797 297.969 159.797C296.344 159.797 294.844 160.219 293.469 161.062C292.094 161.875 290.906 162.922 289.906 164.203C288.906 165.484 288.125 166.906 287.562 168.469C287 170 286.719 171.484 286.719 172.922ZM300.266 144.141L295.203 151.641C294.828 152.078 294.453 152.266 294.078 152.203C293.703 152.141 293.406 151.969 293.188 151.688C293 151.375 292.891 151 292.859 150.562C292.859 150.094 293.031 149.641 293.375 149.203C293.469 149.109 293.562 148.984 293.656 148.828C293.781 148.641 293.859 148.516 293.891 148.453C294.203 147.953 294.562 147.391 294.969 146.766C295.375 146.141 295.797 145.562 296.234 145.031C296.672 144.469 297.094 143.984 297.5 143.578C297.938 143.141 298.344 142.859 298.719 142.734C299.094 142.578 299.406 142.609 299.656 142.828C299.938 143.016 300.141 143.453 300.266 144.141ZM311.844 163.312C311.844 163.031 311.859 162.75 311.891 162.469C311.922 162.156 311.984 161.891 312.078 161.672C312.172 161.422 312.312 161.219 312.5 161.062C312.719 160.906 313.016 160.828 313.391 160.828C313.703 160.828 314.047 161.078 314.422 161.578C314.828 162.047 315.234 162.656 315.641 163.406C316.047 164.125 316.438 164.922 316.812 165.797C317.219 166.672 317.562 167.484 317.844 168.234C318.156 168.953 318.406 169.578 318.594 170.109C318.781 170.641 318.891 170.922 318.922 170.953C319.328 169.859 319.781 168.672 320.281 167.391C320.781 166.109 321.391 164.922 322.109 163.828C322.859 162.703 323.734 161.766 324.734 161.016C325.766 160.266 327.016 159.891 328.484 159.891C329.234 159.891 329.938 160.016 330.594 160.266C331.281 160.484 331.875 160.828 332.375 161.297C332.906 161.734 333.328 162.266 333.641 162.891C333.953 163.516 334.109 164.234 334.109 165.047C334.109 165.734 333.828 166.219 333.266 166.5C332.734 166.781 332.125 166.922 331.438 166.922H330.969L328.953 164.906C328.891 164.906 328.844 164.891 328.812 164.859C328.75 164.859 328.688 164.859 328.625 164.859C328.594 164.828 328.547 164.812 328.484 164.812C327.391 164.812 326.531 165.125 325.906 165.75C325.312 166.344 324.859 167.094 324.547 168C324.234 168.875 324.031 169.812 323.938 170.812C323.875 171.781 323.844 172.672 323.844 173.484C323.844 174.109 323.906 174.75 324.031 175.406C324.156 176.031 324.297 176.656 324.453 177.281C324.609 177.875 324.75 178.5 324.875 179.156C325 179.781 325.062 180.438 325.062 181.125C325.062 182.438 324.359 183.094 322.953 183.094C322.172 183.094 321.359 182.688 320.516 181.875C319.672 181.031 318.828 179.969 317.984 178.688C317.172 177.406 316.391 176 315.641 174.469C314.891 172.906 314.234 171.391 313.672 169.922C313.109 168.453 312.656 167.125 312.312 165.938C312 164.75 311.844 163.875 311.844 163.312ZM337.766 165.422C337.766 165.234 337.766 164.938 337.766 164.531C337.797 164.094 337.812 163.641 337.812 163.172C337.844 162.703 337.859 162.25 337.859 161.812C337.891 161.375 337.906 161.062 337.906 160.875C338.25 160.375 338.688 159.969 339.219 159.656C339.781 159.344 340.344 159.094 340.906 158.906C341 160.594 341.266 162.391 341.703 164.297C342.141 166.203 342.609 168.125 343.109 170.062C343.609 171.969 344.047 173.859 344.422 175.734C344.828 177.609 345.031 179.359 345.031 180.984C345.031 182.391 344.312 183.094 342.875 183.094C342 183.094 341.266 182.734 340.672 182.016C340.078 181.297 339.594 180.391 339.219 179.297C338.875 178.172 338.594 176.938 338.375 175.594C338.156 174.219 338 172.875 337.906 171.562C337.844 170.25 337.797 169.047 337.766 167.953C337.766 166.859 337.766 166.016 337.766 165.422ZM338.422 147.844C339.016 148.094 339.516 148.5 339.922 149.062C340.328 149.625 340.5 150.141 340.438 150.609C340.406 151.047 340.062 151.359 339.406 151.547C338.75 151.703 337.656 151.516 336.125 150.984C336.125 150.141 336.281 149.406 336.594 148.781C336.938 148.156 337.547 147.844 338.422 147.844ZM346.859 173.484C346.859 171.547 347.312 169.75 348.219 168.094C349.125 166.406 350.312 164.969 351.781 163.781C353.281 162.562 354.953 161.609 356.797 160.922C358.672 160.234 360.562 159.891 362.469 159.891C363.531 159.891 364.469 160.234 365.281 160.922C366.125 161.609 366.828 162.453 367.391 163.453C367.953 164.422 368.375 165.453 368.656 166.547C368.969 167.641 369.125 168.594 369.125 169.406C369.125 171.156 368.703 172.859 367.859 174.516C367.016 176.141 365.922 177.594 364.578 178.875C363.234 180.125 361.719 181.141 360.031 181.922C358.344 182.703 356.656 183.094 354.969 183.094C353.469 183.094 352.203 182.844 351.172 182.344C350.141 181.812 349.312 181.125 348.688 180.281C348.062 179.406 347.594 178.391 347.281 177.234C347 176.047 346.859 174.797 346.859 173.484ZM350.844 173.953C350.844 174.766 350.906 175.484 351.031 176.109C351.188 176.703 351.438 177.219 351.781 177.656C352.156 178.094 352.641 178.438 353.234 178.688C353.828 178.906 354.562 179.016 355.438 179.016C356.594 179.016 357.75 178.703 358.906 178.078C360.062 177.422 361.094 176.609 362 175.641C362.938 174.641 363.688 173.547 364.25 172.359C364.812 171.172 365.094 170.016 365.094 168.891C365.094 168.391 365.047 167.844 364.953 167.25C364.859 166.656 364.703 166.109 364.484 165.609C364.266 165.109 363.953 164.688 363.547 164.344C363.141 164 362.625 163.828 362 163.828C361.438 163.828 360.766 164.016 359.984 164.391C359.234 164.766 358.438 165.25 357.594 165.844C356.781 166.438 355.969 167.109 355.156 167.859C354.375 168.609 353.656 169.359 353 170.109C352.344 170.859 351.812 171.578 351.406 172.266C351.031 172.953 350.844 173.516 350.844 173.953Z" fill="black"/>
</svg>
