<svg width="86" height="63" viewBox="0 0 86 63" fill="none" xmlns="http://www.w3.org/2000/svg">
<path d="M17.7852 27.1855C18.1627 25.1768 18.3514 24.1724 18.6199 23.4966C20.3442 19.156 25.6084 17.3582 29.9027 19.6433C30.5712 19.999 31.4039 20.6546 33.0691 21.9657V21.9657C34.8436 23.3629 35.7309 24.0615 36.2419 24.6452C39.5369 28.4096 38.6698 34.0495 34.4208 36.4895C33.7619 36.8678 32.712 37.2264 30.6124 37.9434V37.9434C28.5128 38.6605 27.463 39.0191 26.699 39.1266C21.7727 39.8203 17.2448 36.0229 17.1903 31.1518C17.1818 30.3965 17.383 29.3262 17.7852 27.1855V27.1855Z" fill="white"/>
<ellipse rx="2.95378" ry="4.29409" transform="matrix(0.718083 -0.673801 0.740922 0.695231 11.0031 24.4224)" fill="white"/>
<ellipse rx="2.95378" ry="4.29409" transform="matrix(1.01166 0.0830505 -0.0913237 0.979464 36.3718 15.7585)" fill="white"/>
<ellipse rx="4.46161" ry="5.68257" transform="matrix(0.873368 -0.473144 0.527865 0.857907 14.9721 14.081)" fill="white"/>
<ellipse rx="4.46161" ry="5.68257" transform="matrix(0.993158 -0.164321 0.183325 0.975575 26.2471 10.2303)" fill="white"/>
<path d="M55.8458 35.5274C57.1688 33.9385 57.8303 33.144 58.3994 32.6683C62.0712 29.5995 67.5513 30.3222 70.1794 34.2218C70.5868 34.8263 70.9893 35.761 71.7943 37.6306V37.6306C72.6663 39.6558 73.1023 40.6684 73.2632 41.4113C74.3068 46.2279 70.7262 50.8932 65.7616 51.1854C64.9958 51.2305 63.8941 51.0853 61.6908 50.7947V50.7947C59.4875 50.5041 58.3859 50.3589 57.663 50.1174C52.9765 48.5524 50.9051 43.1418 53.3231 38.7818C53.6961 38.1092 54.4127 37.2486 55.8458 35.5274V35.5274Z" fill="white"/>
<ellipse rx="2.96518" ry="4.27637" transform="matrix(0.967415 -0.277529 0.307623 0.944139 51.1418 30.218)" fill="white"/>
<ellipse rx="2.96518" ry="4.27637" transform="matrix(0.848414 0.51699 -0.573049 0.828001 77.8758 33.7435)" fill="white"/>
<ellipse rx="4.48642" ry="5.64774" transform="matrix(1.00229 -0.0328424 0.0370716 0.996127 59.8202 22.8356)" fill="white"/>
<ellipse rx="4.48642" ry="5.64774" transform="matrix(0.953817 0.290802 -0.32825 0.94795 71.7021 24.4025)" fill="white"/>
</svg>
