<svg width="400" height="205" viewBox="0 0 400 205" fill="none" xmlns="http://www.w3.org/2000/svg">
<path d="M148.584 52.8636C149.464 48.1812 149.904 45.84 150.604 44.2943C153.998 36.793 163.149 33.6677 170.888 37.3668C172.482 38.1291 174.423 39.6572 178.305 42.7134V42.7134C182.441 45.9703 184.509 47.5987 185.638 49.0115C191.131 55.8906 189.625 65.6835 182.361 70.3229C180.869 71.2757 178.422 72.1115 173.528 73.783V73.783C168.633 75.4545 166.186 76.2902 164.391 76.4602C155.648 77.2878 147.786 70.6942 147.281 62.1111C147.178 60.3484 147.647 57.8535 148.584 52.8636V52.8636Z" fill="black"/>
<ellipse rx="5.74377" ry="8.35009" transform="matrix(0.718083 -0.673801 0.740922 0.695231 135.396 47.4905)" fill="black"/>
<ellipse rx="5.74377" ry="8.35008" transform="matrix(1.01166 0.0830505 -0.0913237 0.979464 184.727 30.6431)" fill="black"/>
<ellipse rx="8.67584" ry="11.0501" transform="matrix(0.873368 -0.473144 0.527865 0.857907 143.114 27.3812)" fill="black"/>
<ellipse rx="8.67584" ry="11.0501" transform="matrix(0.993158 -0.164321 0.183325 0.975575 165.039 19.8934)" fill="black"/>
<path d="M222.595 69.085C225.681 65.3788 227.224 63.5258 228.601 62.4742C235.307 57.3517 244.835 58.6083 249.777 65.2668C250.791 66.6337 251.73 68.8141 253.608 73.1748V73.1748C255.642 77.8986 256.659 80.2604 256.953 82.0125C258.393 90.5833 252.176 98.6838 243.453 99.602C241.67 99.7897 239.101 99.4508 233.961 98.7731V98.7731C228.822 98.0953 226.252 97.7564 224.593 97.1148C216.478 93.9762 212.882 84.5815 216.783 76.7152C217.581 75.1071 219.252 73.0997 222.595 69.085V69.085Z" fill="black"/>
<ellipse rx="5.76594" ry="8.31564" transform="matrix(0.967415 -0.277529 0.307623 0.944139 213.448 58.7605)" fill="black"/>
<ellipse rx="5.76594" ry="8.31563" transform="matrix(0.848414 0.51699 -0.573049 0.828001 265.434 65.616)" fill="black"/>
<ellipse rx="8.72408" ry="10.9823" transform="matrix(1.00229 -0.0328424 0.0370716 0.996127 230.324 44.405)" fill="black"/>
<ellipse rx="8.72408" ry="10.9823" transform="matrix(0.953817 0.290802 -0.32825 0.94795 253.429 47.4518)" fill="black"/>
<path d="M23.7754 151.969C23.7754 151.318 23.987 150.895 24.4102 150.699C24.8659 150.504 25.3542 150.406 25.875 150.406C25.9727 150.406 26.1517 150.423 26.4121 150.455C26.7051 150.488 26.8841 150.504 26.9492 150.504C27.0469 151.513 27.1445 152.734 27.2422 154.166C27.3398 155.566 27.4538 157.096 27.584 158.756C27.7142 160.383 27.877 162.076 28.0723 163.834C28.2676 165.592 28.5443 167.317 28.9023 169.01C29.2604 170.67 29.6999 172.265 30.2207 173.795C30.7415 175.292 31.3763 176.594 32.125 177.701C32.2878 177.994 32.4342 178.222 32.5645 178.385C32.7272 178.515 32.8737 178.629 33.0039 178.727C33.1667 178.792 33.3457 178.84 33.541 178.873C33.7363 178.873 33.9805 178.873 34.2734 178.873C35.6081 178.873 36.8776 178.645 38.082 178.189C39.319 177.734 40.5397 177.229 41.7441 176.676C42.9486 176.122 44.1693 175.618 45.4062 175.162C46.6432 174.706 47.9453 174.479 49.3125 174.479C49.6055 174.479 49.9798 174.479 50.4355 174.479C50.8913 174.446 51.3145 174.462 51.7051 174.527C52.0957 174.592 52.4375 174.755 52.7305 175.016C53.0234 175.276 53.1699 175.667 53.1699 176.188C53.1699 176.676 52.7305 177.213 51.8516 177.799C50.9727 178.352 49.8496 178.922 48.4824 179.508C47.1152 180.061 45.6178 180.615 43.9902 181.168C42.3952 181.721 40.849 182.21 39.3516 182.633C37.8867 183.056 36.5846 183.398 35.4453 183.658C34.306 183.886 33.5573 184 33.1992 184C32.0273 184 30.9857 183.609 30.0742 182.828C29.1953 182.014 28.4141 180.94 27.7305 179.605C27.0794 178.238 26.526 176.692 26.0703 174.967C25.6146 173.209 25.2402 171.386 24.9473 169.498C24.6543 167.61 24.4264 165.738 24.2637 163.883C24.1009 162.027 23.987 160.302 23.9219 158.707C23.8568 157.112 23.8079 155.712 23.7754 154.508C23.7754 153.303 23.7754 152.457 23.7754 151.969ZM76.0703 177.701C74.8333 178.548 73.7591 179.312 72.8477 179.996C71.9688 180.647 71.1061 181.201 70.2598 181.656C69.4134 182.112 68.502 182.454 67.5254 182.682C66.5814 182.91 65.4095 183.023 64.0098 183.023C60.9824 183.023 58.7363 182.226 57.2715 180.631C55.8066 179.003 55.0742 176.594 55.0742 173.404C55.0742 172.167 55.237 170.882 55.5625 169.547C55.888 168.212 56.36 166.894 56.9785 165.592C57.6296 164.257 58.3945 163.004 59.2734 161.832C60.1523 160.628 61.1452 159.57 62.252 158.658C63.3587 157.747 64.5306 157.031 65.7676 156.51C67.0371 155.956 68.3717 155.68 69.7715 155.68C72.1152 155.908 73.9544 156.493 75.2891 157.438C76.6237 158.349 77.6328 159.537 78.3164 161.002C79 162.434 79.472 164.046 79.7324 165.836C79.9928 167.594 80.1882 169.417 80.3184 171.305C80.4811 173.193 80.6764 175.081 80.9043 176.969C81.1322 178.857 81.6042 180.598 82.3203 182.193C81.8971 183.268 81.4902 184.016 81.0996 184.439C80.7415 184.895 80.3346 184.977 79.8789 184.684C79.4232 184.391 78.8861 183.674 78.2676 182.535C77.6816 181.396 76.9492 179.785 76.0703 177.701ZM59.2246 173.502C59.2246 175.357 59.5664 176.725 60.25 177.604C60.9661 178.45 62.2194 178.873 64.0098 178.873C65.3444 178.873 66.6139 178.645 67.8184 178.189C69.0553 177.701 70.1296 177.05 71.041 176.236C71.9525 175.39 72.6849 174.381 73.2383 173.209C73.7917 172.037 74.0684 170.735 74.0684 169.303C74.0684 168.717 74.0846 167.903 74.1172 166.861C74.1497 165.787 74.0846 164.729 73.9219 163.688C73.7591 162.646 73.4499 161.751 72.9941 161.002C72.5384 160.221 71.8548 159.83 70.9434 159.83C69.2507 159.83 67.6882 160.27 66.2559 161.148C64.8236 161.995 63.5866 163.085 62.5449 164.42C61.5033 165.755 60.6895 167.236 60.1035 168.863C59.5176 170.458 59.2246 172.005 59.2246 173.502ZM85.3965 163.492C85.3965 163.199 85.4128 162.906 85.4453 162.613C85.4779 162.288 85.543 162.011 85.6406 161.783C85.7383 161.523 85.8848 161.311 86.0801 161.148C86.3079 160.986 86.6172 160.904 87.0078 160.904C87.3333 160.904 87.6914 161.165 88.082 161.686C88.5052 162.174 88.9284 162.809 89.3516 163.59C89.7747 164.339 90.1816 165.169 90.5723 166.08C90.9954 166.992 91.3535 167.838 91.6465 168.619C91.972 169.368 92.2324 170.019 92.4277 170.572C92.623 171.126 92.737 171.419 92.7695 171.451C93.1927 170.312 93.6647 169.075 94.1855 167.74C94.7064 166.406 95.3411 165.169 96.0898 164.029C96.8711 162.857 97.7826 161.881 98.8242 161.1C99.8984 160.318 101.201 159.928 102.73 159.928C103.512 159.928 104.244 160.058 104.928 160.318C105.644 160.546 106.262 160.904 106.783 161.393C107.337 161.848 107.776 162.402 108.102 163.053C108.427 163.704 108.59 164.452 108.59 165.299C108.59 166.015 108.297 166.52 107.711 166.812C107.158 167.105 106.523 167.252 105.807 167.252H105.318L103.219 165.152C103.154 165.152 103.105 165.136 103.072 165.104C103.007 165.104 102.942 165.104 102.877 165.104C102.844 165.071 102.796 165.055 102.73 165.055C101.591 165.055 100.696 165.38 100.045 166.031C99.4264 166.65 98.9544 167.431 98.6289 168.375C98.3034 169.286 98.0918 170.263 97.9941 171.305C97.929 172.314 97.8965 173.242 97.8965 174.088C97.8965 174.739 97.9616 175.406 98.0918 176.09C98.222 176.741 98.3685 177.392 98.5312 178.043C98.694 178.661 98.8405 179.312 98.9707 179.996C99.1009 180.647 99.166 181.331 99.166 182.047C99.166 183.414 98.4336 184.098 96.9688 184.098C96.1549 184.098 95.3086 183.674 94.4297 182.828C93.5508 181.949 92.6719 180.842 91.793 179.508C90.9466 178.173 90.1328 176.708 89.3516 175.113C88.5703 173.486 87.8867 171.907 87.3008 170.377C86.7148 168.847 86.2428 167.464 85.8848 166.227C85.5592 164.99 85.3965 164.078 85.3965 163.492ZM129.293 154.703C129.163 154.247 128.902 153.938 128.512 153.775C128.154 153.613 127.747 153.531 127.291 153.531C126.868 153.499 126.445 153.515 126.021 153.58C125.598 153.645 125.273 153.678 125.045 153.678C124.492 153.645 123.531 153.58 122.164 153.482C120.797 153.385 119.316 153.287 117.721 153.189C116.158 153.059 114.693 152.945 113.326 152.848C111.959 152.717 110.999 152.636 110.445 152.604C110.445 152.538 110.429 152.376 110.396 152.115C110.364 151.855 110.348 151.676 110.348 151.578C110.348 151.122 110.38 150.715 110.445 150.357C110.543 149.999 110.868 149.723 111.422 149.527C114.482 149.592 117.493 149.576 120.455 149.479C123.45 149.381 126.428 149.251 129.391 149.088C132.385 148.893 135.364 148.714 138.326 148.551C141.321 148.388 144.332 148.307 147.359 148.307C147.359 149.544 147.066 150.455 146.48 151.041C145.895 151.594 145.162 151.969 144.283 152.164C143.437 152.359 142.493 152.441 141.451 152.408C140.41 152.376 139.4 152.392 138.424 152.457C137.48 152.522 136.633 152.717 135.885 153.043C135.169 153.336 134.697 153.889 134.469 154.703C134.436 154.898 134.404 155.273 134.371 155.826C134.339 156.38 134.306 156.965 134.273 157.584C134.273 158.202 134.257 158.788 134.225 159.342C134.225 159.863 134.225 160.237 134.225 160.465C134.225 162.32 134.452 164.16 134.908 165.982C135.396 167.773 135.917 169.563 136.471 171.354C137.057 173.111 137.577 174.885 138.033 176.676C138.521 178.434 138.766 180.224 138.766 182.047C138.766 183.414 137.984 184.098 136.422 184.098C135.478 184.098 134.632 183.447 133.883 182.145C133.167 180.842 132.532 179.182 131.979 177.164C131.458 175.146 131.018 172.949 130.66 170.572C130.335 168.196 130.058 165.917 129.83 163.736C129.635 161.555 129.488 159.635 129.391 157.975C129.326 156.314 129.293 155.224 129.293 154.703ZM150.094 170.426C150.094 168.668 150.305 166.91 150.729 165.152C151.152 163.395 151.819 161.816 152.73 160.416C153.674 159.016 154.879 157.877 156.344 156.998C157.841 156.119 159.648 155.68 161.764 155.68C162.968 155.68 164.026 155.908 164.938 156.363C165.849 156.786 166.614 157.356 167.232 158.072C167.851 158.788 168.307 159.635 168.6 160.611C168.925 161.555 169.088 162.548 169.088 163.59C169.088 165.25 168.697 166.861 167.916 168.424C167.167 169.986 166.142 171.37 164.84 172.574C163.57 173.746 162.105 174.641 160.445 175.26C158.785 175.846 157.092 175.976 155.367 175.65C155.4 176.594 155.709 177.359 156.295 177.945C156.913 178.499 157.646 178.922 158.492 179.215C159.339 179.508 160.217 179.703 161.129 179.801C162.04 179.866 162.854 179.898 163.57 179.898C164.319 179.898 165.019 179.833 165.67 179.703C166.321 179.573 166.972 179.426 167.623 179.264C168.274 179.101 168.925 178.954 169.576 178.824C170.26 178.694 170.976 178.629 171.725 178.629C172.018 178.629 172.311 178.645 172.604 178.678C172.896 178.71 173.173 178.792 173.434 178.922C173.694 179.02 173.906 179.199 174.068 179.459C174.231 179.687 174.312 179.98 174.312 180.338C174.312 180.956 174.085 181.477 173.629 181.9C173.173 182.291 172.587 182.633 171.871 182.926C171.188 183.219 170.423 183.447 169.576 183.609C168.73 183.74 167.9 183.854 167.086 183.951C166.305 184.016 165.572 184.049 164.889 184.049C164.238 184.081 163.749 184.098 163.424 184.098C161.34 184.098 159.469 183.772 157.809 183.121C156.148 182.438 154.749 181.51 153.609 180.338C152.47 179.133 151.591 177.701 150.973 176.041C150.387 174.348 150.094 172.477 150.094 170.426ZM155.27 167.252C155.27 168.391 155.416 169.221 155.709 169.742C156.035 170.263 156.799 170.523 158.004 170.523C158.85 170.523 159.68 170.377 160.494 170.084C161.308 169.758 162.04 169.319 162.691 168.766C163.375 168.212 163.912 167.561 164.303 166.812C164.693 166.064 164.889 165.25 164.889 164.371C164.889 163.883 164.84 163.378 164.742 162.857C164.677 162.337 164.514 161.865 164.254 161.441C163.993 160.986 163.652 160.628 163.229 160.367C162.838 160.074 162.317 159.928 161.666 159.928C160.689 159.928 159.794 160.156 158.98 160.611C158.199 161.035 157.532 161.604 156.979 162.32C156.425 163.004 156.002 163.785 155.709 164.664C155.416 165.51 155.27 166.373 155.27 167.252ZM176.266 163.492C176.266 162.678 176.396 162.044 176.656 161.588C176.949 161.132 177.551 160.904 178.463 160.904C178.561 160.904 178.74 160.921 179 160.953C179.293 160.953 179.472 160.953 179.537 160.953C179.765 161.962 179.993 163.069 180.221 164.273C180.481 165.445 180.774 166.633 181.1 167.838C181.425 169.042 181.783 170.23 182.174 171.402C182.597 172.574 183.102 173.632 183.688 174.576C184.273 173.958 184.697 173.225 184.957 172.379C185.217 171.533 185.413 170.686 185.543 169.84C185.673 168.961 185.787 168.131 185.885 167.35C186.015 166.536 186.259 165.852 186.617 165.299C186.975 164.713 187.496 164.29 188.18 164.029C188.896 163.769 189.872 163.769 191.109 164.029C192.477 164.029 193.567 164.29 194.381 164.811C195.195 165.299 195.895 165.934 196.48 166.715C197.099 167.464 197.685 168.277 198.238 169.156C198.824 170.003 199.557 170.768 200.436 171.451C200.631 171.028 200.875 170.507 201.168 169.889C201.461 169.238 201.819 168.57 202.242 167.887C202.698 167.171 203.17 166.471 203.658 165.787C204.179 165.071 204.716 164.436 205.27 163.883C205.823 163.297 206.393 162.825 206.979 162.467C207.564 162.076 208.134 161.881 208.688 161.881C210.022 161.881 211.178 162.304 212.154 163.15C213.131 163.964 213.961 165.006 214.645 166.275C215.361 167.512 215.947 168.912 216.402 170.475C216.858 172.005 217.216 173.486 217.477 174.918C217.737 176.35 217.916 177.669 218.014 178.873C218.144 180.045 218.209 180.891 218.209 181.412C218.209 181.835 218.111 182.161 217.916 182.389C217.721 182.617 217.477 182.796 217.184 182.926C216.891 183.023 216.565 183.089 216.207 183.121C215.882 183.154 215.572 183.17 215.279 183.17C215.214 183.17 215.117 183.17 214.986 183.17C214.856 183.137 214.71 183.105 214.547 183.072C214.417 183.04 214.238 182.991 214.01 182.926L210.836 168.326C210.836 168.229 210.706 168.049 210.445 167.789C210.185 167.496 209.99 167.317 209.859 167.252C209.762 167.252 209.68 167.236 209.615 167.203C209.55 167.203 209.501 167.203 209.469 167.203C209.436 167.171 209.404 167.154 209.371 167.154C208.688 167.154 208.036 167.431 207.418 167.984C206.832 168.538 206.279 169.238 205.758 170.084C205.237 170.93 204.749 171.874 204.293 172.916C203.837 173.958 203.43 174.999 203.072 176.041C202.714 177.05 202.389 177.994 202.096 178.873C201.835 179.719 201.624 180.37 201.461 180.826C201.331 180.891 201.07 180.956 200.68 181.021C200.289 181.054 200.029 181.07 199.898 181.07C198.987 181.07 198.287 180.761 197.799 180.143C197.311 179.492 196.904 178.694 196.578 177.75C196.285 176.806 196.025 175.781 195.797 174.674C195.602 173.535 195.341 172.493 195.016 171.549C194.723 170.605 194.299 169.824 193.746 169.205C193.225 168.554 192.477 168.229 191.5 168.229C191.142 168.229 190.8 168.587 190.475 169.303C190.149 170.019 189.856 170.93 189.596 172.037C189.335 173.111 189.091 174.283 188.863 175.553C188.635 176.79 188.44 177.962 188.277 179.068C188.147 180.143 188.049 181.054 187.984 181.803C187.919 182.551 187.887 182.926 187.887 182.926C187.822 183.023 187.691 183.137 187.496 183.268C187.301 183.365 187.089 183.479 186.861 183.609C186.666 183.74 186.454 183.837 186.227 183.902C186.031 183.967 185.885 184 185.787 184C184.876 184 183.997 183.593 183.15 182.779C182.304 181.933 181.523 180.859 180.807 179.557C180.123 178.222 179.488 176.757 178.902 175.162C178.349 173.567 177.877 172.005 177.486 170.475C177.096 168.945 176.786 167.561 176.559 166.324C176.363 165.087 176.266 164.143 176.266 163.492ZM220.211 165.982C220.211 162.825 220.943 160.481 222.408 158.951C223.873 157.421 226.119 156.656 229.146 156.656C230.383 156.656 231.653 156.77 232.955 156.998C234.29 157.226 235.51 157.633 236.617 158.219C237.724 158.772 238.619 159.553 239.303 160.562C240.019 161.572 240.377 162.874 240.377 164.469C240.377 166.227 239.986 167.887 239.205 169.449C238.456 170.979 237.496 172.428 236.324 173.795C235.185 175.13 233.915 176.383 232.516 177.555C231.148 178.694 229.863 179.785 228.658 180.826C228.593 180.956 228.528 181.233 228.463 181.656C228.43 182.047 228.414 182.307 228.414 182.438C228.414 183.512 228.723 184.586 229.342 185.66C229.993 186.767 230.693 187.874 231.441 188.98C232.19 190.12 232.874 191.292 233.492 192.496C234.111 193.701 234.42 194.954 234.42 196.256C234.42 197.037 234.257 197.493 233.932 197.623C233.606 197.786 232.923 197.867 231.881 197.867C231.23 197.607 230.579 196.988 229.928 196.012C229.309 195.068 228.674 193.896 228.023 192.496C227.405 191.096 226.786 189.518 226.168 187.76C225.582 186.035 225.012 184.277 224.459 182.486C223.938 180.663 223.434 178.873 222.945 177.115C222.49 175.325 222.083 173.681 221.725 172.184C221.367 170.686 221.041 169.4 220.748 168.326C220.488 167.219 220.309 166.438 220.211 165.982ZM224.361 166.422C224.361 166.91 224.394 167.626 224.459 168.57C224.524 169.482 224.654 170.393 224.85 171.305C225.077 172.216 225.403 173.014 225.826 173.697C226.249 174.348 226.835 174.674 227.584 174.674C228.593 174.674 229.602 174.332 230.611 173.648C231.653 172.965 232.564 172.102 233.346 171.061C234.16 170.019 234.811 168.912 235.299 167.74C235.82 166.536 236.08 165.445 236.08 164.469C236.08 163.655 235.885 163.02 235.494 162.564C235.104 162.076 234.599 161.702 233.98 161.441C233.395 161.148 232.76 160.969 232.076 160.904C231.393 160.807 230.742 160.758 230.123 160.758C228.268 160.758 226.835 161.262 225.826 162.271C224.85 163.248 224.361 164.632 224.361 166.422ZM243.258 174.088C243.258 172.07 243.73 170.198 244.674 168.473C245.618 166.715 246.855 165.217 248.385 163.98C249.947 162.711 251.689 161.718 253.609 161.002C255.562 160.286 257.532 159.928 259.518 159.928C260.624 159.928 261.601 160.286 262.447 161.002C263.326 161.718 264.059 162.597 264.645 163.639C265.23 164.648 265.67 165.722 265.963 166.861C266.288 168.001 266.451 168.993 266.451 169.84C266.451 171.663 266.012 173.437 265.133 175.162C264.254 176.855 263.115 178.368 261.715 179.703C260.315 181.005 258.736 182.063 256.979 182.877C255.221 183.691 253.463 184.098 251.705 184.098C250.143 184.098 248.824 183.837 247.75 183.316C246.676 182.763 245.813 182.047 245.162 181.168C244.511 180.257 244.023 179.199 243.697 177.994C243.404 176.757 243.258 175.455 243.258 174.088ZM247.408 174.576C247.408 175.423 247.473 176.171 247.604 176.822C247.766 177.441 248.027 177.978 248.385 178.434C248.775 178.889 249.28 179.247 249.898 179.508C250.517 179.736 251.282 179.85 252.193 179.85C253.398 179.85 254.602 179.524 255.807 178.873C257.011 178.189 258.085 177.343 259.029 176.334C260.006 175.292 260.787 174.153 261.373 172.916C261.959 171.679 262.252 170.475 262.252 169.303C262.252 168.782 262.203 168.212 262.105 167.594C262.008 166.975 261.845 166.406 261.617 165.885C261.389 165.364 261.064 164.924 260.641 164.566C260.217 164.208 259.68 164.029 259.029 164.029C258.443 164.029 257.743 164.225 256.93 164.615C256.148 165.006 255.318 165.51 254.439 166.129C253.593 166.747 252.747 167.447 251.9 168.229C251.087 169.01 250.338 169.791 249.654 170.572C248.971 171.354 248.417 172.102 247.994 172.818C247.604 173.535 247.408 174.12 247.408 174.576ZM268.355 163.492C268.355 163.199 268.372 162.906 268.404 162.613C268.437 162.288 268.502 162.011 268.6 161.783C268.697 161.523 268.844 161.311 269.039 161.148C269.267 160.986 269.576 160.904 269.967 160.904C270.292 160.904 270.65 161.165 271.041 161.686C271.464 162.174 271.887 162.809 272.311 163.59C272.734 164.339 273.141 165.169 273.531 166.08C273.954 166.992 274.312 167.838 274.605 168.619C274.931 169.368 275.191 170.019 275.387 170.572C275.582 171.126 275.696 171.419 275.729 171.451C276.152 170.312 276.624 169.075 277.145 167.74C277.665 166.406 278.3 165.169 279.049 164.029C279.83 162.857 280.742 161.881 281.783 161.1C282.857 160.318 284.16 159.928 285.689 159.928C286.471 159.928 287.203 160.058 287.887 160.318C288.603 160.546 289.221 160.904 289.742 161.393C290.296 161.848 290.735 162.402 291.061 163.053C291.386 163.704 291.549 164.452 291.549 165.299C291.549 166.015 291.256 166.52 290.67 166.812C290.117 167.105 289.482 167.252 288.766 167.252H288.277L286.178 165.152C286.113 165.152 286.064 165.136 286.031 165.104C285.966 165.104 285.901 165.104 285.836 165.104C285.803 165.071 285.755 165.055 285.689 165.055C284.55 165.055 283.655 165.38 283.004 166.031C282.385 166.65 281.913 167.431 281.588 168.375C281.262 169.286 281.051 170.263 280.953 171.305C280.888 172.314 280.855 173.242 280.855 174.088C280.855 174.739 280.921 175.406 281.051 176.09C281.181 176.741 281.327 177.392 281.49 178.043C281.653 178.661 281.799 179.312 281.93 179.996C282.06 180.647 282.125 181.331 282.125 182.047C282.125 183.414 281.393 184.098 279.928 184.098C279.114 184.098 278.268 183.674 277.389 182.828C276.51 181.949 275.631 180.842 274.752 179.508C273.906 178.173 273.092 176.708 272.311 175.113C271.529 173.486 270.846 171.907 270.26 170.377C269.674 168.847 269.202 167.464 268.844 166.227C268.518 164.99 268.355 164.078 268.355 163.492ZM314.303 177.701C313.066 178.548 311.992 179.312 311.08 179.996C310.201 180.647 309.339 181.201 308.492 181.656C307.646 182.112 306.734 182.454 305.758 182.682C304.814 182.91 303.642 183.023 302.242 183.023C299.215 183.023 296.969 182.226 295.504 180.631C294.039 179.003 293.307 176.594 293.307 173.404C293.307 172.167 293.469 170.882 293.795 169.547C294.12 168.212 294.592 166.894 295.211 165.592C295.862 164.257 296.627 163.004 297.506 161.832C298.385 160.628 299.378 159.57 300.484 158.658C301.591 157.747 302.763 157.031 304 156.51C305.27 155.956 306.604 155.68 308.004 155.68C310.348 155.908 312.187 156.493 313.521 157.438C314.856 158.349 315.865 159.537 316.549 161.002C317.232 162.434 317.704 164.046 317.965 165.836C318.225 167.594 318.421 169.417 318.551 171.305C318.714 173.193 318.909 175.081 319.137 176.969C319.365 178.857 319.837 180.598 320.553 182.193C320.13 183.268 319.723 184.016 319.332 184.439C318.974 184.895 318.567 184.977 318.111 184.684C317.656 184.391 317.118 183.674 316.5 182.535C315.914 181.396 315.182 179.785 314.303 177.701ZM297.457 173.502C297.457 175.357 297.799 176.725 298.482 177.604C299.199 178.45 300.452 178.873 302.242 178.873C303.577 178.873 304.846 178.645 306.051 178.189C307.288 177.701 308.362 177.05 309.273 176.236C310.185 175.39 310.917 174.381 311.471 173.209C312.024 172.037 312.301 170.735 312.301 169.303C312.301 168.717 312.317 167.903 312.35 166.861C312.382 165.787 312.317 164.729 312.154 163.688C311.992 162.646 311.682 161.751 311.227 161.002C310.771 160.221 310.087 159.83 309.176 159.83C307.483 159.83 305.921 160.27 304.488 161.148C303.056 161.995 301.819 163.085 300.777 164.42C299.736 165.755 298.922 167.236 298.336 168.863C297.75 170.458 297.457 172.005 297.457 173.502ZM311.568 143.521L306.295 151.334C305.904 151.79 305.514 151.985 305.123 151.92C304.732 151.855 304.423 151.676 304.195 151.383C304 151.057 303.886 150.667 303.854 150.211C303.854 149.723 304.033 149.251 304.391 148.795C304.488 148.697 304.586 148.567 304.684 148.404C304.814 148.209 304.895 148.079 304.928 148.014C305.253 147.493 305.628 146.907 306.051 146.256C306.474 145.605 306.913 145.003 307.369 144.449C307.825 143.863 308.264 143.359 308.688 142.936C309.143 142.48 309.566 142.187 309.957 142.057C310.348 141.894 310.673 141.926 310.934 142.154C311.227 142.35 311.438 142.805 311.568 143.521ZM323.629 163.492C323.629 163.199 323.645 162.906 323.678 162.613C323.71 162.288 323.775 162.011 323.873 161.783C323.971 161.523 324.117 161.311 324.312 161.148C324.54 160.986 324.85 160.904 325.24 160.904C325.566 160.904 325.924 161.165 326.314 161.686C326.738 162.174 327.161 162.809 327.584 163.59C328.007 164.339 328.414 165.169 328.805 166.08C329.228 166.992 329.586 167.838 329.879 168.619C330.204 169.368 330.465 170.019 330.66 170.572C330.855 171.126 330.969 171.419 331.002 171.451C331.425 170.312 331.897 169.075 332.418 167.74C332.939 166.406 333.574 165.169 334.322 164.029C335.104 162.857 336.015 161.881 337.057 161.1C338.131 160.318 339.433 159.928 340.963 159.928C341.744 159.928 342.477 160.058 343.16 160.318C343.876 160.546 344.495 160.904 345.016 161.393C345.569 161.848 346.008 162.402 346.334 163.053C346.66 163.704 346.822 164.452 346.822 165.299C346.822 166.015 346.529 166.52 345.943 166.812C345.39 167.105 344.755 167.252 344.039 167.252H343.551L341.451 165.152C341.386 165.152 341.337 165.136 341.305 165.104C341.24 165.104 341.174 165.104 341.109 165.104C341.077 165.071 341.028 165.055 340.963 165.055C339.824 165.055 338.928 165.38 338.277 166.031C337.659 166.65 337.187 167.431 336.861 168.375C336.536 169.286 336.324 170.263 336.227 171.305C336.161 172.314 336.129 173.242 336.129 174.088C336.129 174.739 336.194 175.406 336.324 176.09C336.454 176.741 336.601 177.392 336.764 178.043C336.926 178.661 337.073 179.312 337.203 179.996C337.333 180.647 337.398 181.331 337.398 182.047C337.398 183.414 336.666 184.098 335.201 184.098C334.387 184.098 333.541 183.674 332.662 182.828C331.783 181.949 330.904 180.842 330.025 179.508C329.179 178.173 328.365 176.708 327.584 175.113C326.803 173.486 326.119 171.907 325.533 170.377C324.947 168.847 324.475 167.464 324.117 166.227C323.792 164.99 323.629 164.078 323.629 163.492ZM350.631 165.689C350.631 165.494 350.631 165.185 350.631 164.762C350.663 164.306 350.68 163.834 350.68 163.346C350.712 162.857 350.729 162.385 350.729 161.93C350.761 161.474 350.777 161.148 350.777 160.953C351.135 160.432 351.591 160.009 352.145 159.684C352.73 159.358 353.316 159.098 353.902 158.902C354 160.66 354.277 162.532 354.732 164.518C355.188 166.503 355.676 168.505 356.197 170.523C356.718 172.509 357.174 174.479 357.564 176.432C357.988 178.385 358.199 180.208 358.199 181.9C358.199 183.365 357.451 184.098 355.953 184.098C355.042 184.098 354.277 183.723 353.658 182.975C353.04 182.226 352.535 181.282 352.145 180.143C351.786 178.971 351.493 177.685 351.266 176.285C351.038 174.853 350.875 173.453 350.777 172.086C350.712 170.719 350.663 169.465 350.631 168.326C350.631 167.187 350.631 166.308 350.631 165.689ZM351.314 147.379C351.933 147.639 352.454 148.062 352.877 148.648C353.3 149.234 353.479 149.771 353.414 150.26C353.382 150.715 353.023 151.041 352.34 151.236C351.656 151.399 350.517 151.204 348.922 150.65C348.922 149.771 349.085 149.007 349.41 148.355C349.768 147.704 350.403 147.379 351.314 147.379ZM360.104 174.088C360.104 172.07 360.576 170.198 361.52 168.473C362.464 166.715 363.701 165.217 365.23 163.98C366.793 162.711 368.535 161.718 370.455 161.002C372.408 160.286 374.378 159.928 376.363 159.928C377.47 159.928 378.447 160.286 379.293 161.002C380.172 161.718 380.904 162.597 381.49 163.639C382.076 164.648 382.516 165.722 382.809 166.861C383.134 168.001 383.297 168.993 383.297 169.84C383.297 171.663 382.857 173.437 381.979 175.162C381.1 176.855 379.96 178.368 378.561 179.703C377.161 181.005 375.582 182.063 373.824 182.877C372.066 183.691 370.309 184.098 368.551 184.098C366.988 184.098 365.67 183.837 364.596 183.316C363.521 182.763 362.659 182.047 362.008 181.168C361.357 180.257 360.868 179.199 360.543 177.994C360.25 176.757 360.104 175.455 360.104 174.088ZM364.254 174.576C364.254 175.423 364.319 176.171 364.449 176.822C364.612 177.441 364.872 177.978 365.23 178.434C365.621 178.889 366.126 179.247 366.744 179.508C367.363 179.736 368.128 179.85 369.039 179.85C370.243 179.85 371.448 179.524 372.652 178.873C373.857 178.189 374.931 177.343 375.875 176.334C376.852 175.292 377.633 174.153 378.219 172.916C378.805 171.679 379.098 170.475 379.098 169.303C379.098 168.782 379.049 168.212 378.951 167.594C378.854 166.975 378.691 166.406 378.463 165.885C378.235 165.364 377.91 164.924 377.486 164.566C377.063 164.208 376.526 164.029 375.875 164.029C375.289 164.029 374.589 164.225 373.775 164.615C372.994 165.006 372.164 165.51 371.285 166.129C370.439 166.747 369.592 167.447 368.746 168.229C367.932 169.01 367.184 169.791 366.5 170.572C365.816 171.354 365.263 172.102 364.84 172.818C364.449 173.535 364.254 174.12 364.254 174.576Z" fill="black"/>
</svg>
