<svg width="86" height="63" viewBox="0 0 86 63" fill="none" xmlns="http://www.w3.org/2000/svg">
<path d="M18.6954 22.342C19.3276 18.9776 19.6437 17.2954 20.5636 16.4458C21.3666 15.7041 22.4605 15.3305 23.5837 15.4143C24.8704 15.5104 26.2649 16.6084 29.0539 18.8043L37.3907 25.3683C40.3635 27.709 41.8499 28.8793 42.2116 30.1373C42.527 31.2342 42.3485 32.3956 41.7212 33.327C41.0017 34.3952 39.2431 34.9959 35.7257 36.1971L25.4991 39.6898C21.9818 40.891 20.2231 41.4917 18.9402 41.1073C17.8216 40.7721 16.8893 39.9902 16.3795 38.9597C15.7948 37.7777 16.1317 35.9847 16.8056 32.3987L18.6954 22.342Z" fill="#0D6EFD"/>
<ellipse rx="2.95378" ry="4.29409" transform="matrix(0.718083 -0.673801 0.740922 0.695231 11.0031 24.4224)" fill="#0D6EFD"/>
<ellipse rx="2.95378" ry="4.29409" transform="matrix(1.01166 0.0830505 -0.0913237 0.979464 36.3718 15.7585)" fill="#0D6EFD"/>
<ellipse rx="4.46161" ry="5.68257" transform="matrix(0.873368 -0.473144 0.527865 0.857907 14.9721 14.081)" fill="#0D6EFD"/>
<ellipse rx="4.46161" ry="5.68257" transform="matrix(0.993158 -0.164321 0.183325 0.975575 26.2471 10.2303)" fill="#0D6EFD"/>
<path d="M59.0371 31.6946C61.2615 29.023 62.3737 27.6872 63.5984 27.3428C64.6676 27.042 65.8068 27.1922 66.7462 27.7579C67.8222 28.4058 68.499 29.9775 69.8525 33.1209L73.9242 42.5772C75.3907 45.9833 76.124 47.6863 75.8175 48.9697C75.5503 50.0886 74.8145 51.0473 73.7976 51.6016C72.631 52.2374 70.7782 51.9931 67.0726 51.5044L56.3091 50.085C52.6034 49.5963 50.7506 49.352 49.8161 48.4391C49.0013 47.6432 48.5757 46.5314 48.6475 45.3867C48.7298 44.0737 49.935 42.6263 52.3453 39.7315L59.0371 31.6946Z" fill="#0D6EFD"/>
<ellipse rx="2.96518" ry="4.27637" transform="matrix(0.967415 -0.277529 0.307623 0.944139 51.1418 30.218)" fill="#0D6EFD"/>
<ellipse rx="2.96518" ry="4.27637" transform="matrix(0.848414 0.51699 -0.573049 0.828001 77.8758 33.7435)" fill="#0D6EFD"/>
<ellipse rx="4.48642" ry="5.64774" transform="matrix(1.00229 -0.0328424 0.0370716 0.996127 59.8202 22.8356)" fill="#0D6EFD"/>
<ellipse rx="4.48642" ry="5.64774" transform="matrix(0.953817 0.290802 -0.32825 0.94795 71.7021 24.4025)" fill="#0D6EFD"/>
</svg>
